<svg id="Layer_1" data-name="Layer 1" xmlns="http://www.w3.org/2000/svg" viewBox="0 0 48.54 32.93"><defs><style>.cls-1{font-size:26.1px;font-family:SegoeUI, Segoe UI;}.cls-1,.cls-2{fill:#1e1e1e;}</style></defs><text class="cls-1" transform="translate(0 22.19)">4</text><path id="Path_47" data-name="Path 47" class="cls-2" d="M24.63.15a9.11,9.11,0,1,0,9.11,9.11A9.11,9.11,0,0,0,24.63.15Zm0,15.58A6.47,6.47,0,1,1,31.1,9.26a6.47,6.47,0,0,1-6.47,6.47Z" transform="translate(-0.76 3.81)"/><path id="Path_48" data-name="Path 48" class="cls-2" d="M24.52,3.67a5.7,5.7,0,1,0,5.7,5.7h0A5.72,5.72,0,0,0,24.52,3.67Zm5,5.34H26.72a2.21,2.21,0,0,0-.39-.95l2-1.95A5,5,0,0,1,29.49,9ZM24.88,4.4a5,5,0,0,1,2.89,1.2l-1.95,2a2.18,2.18,0,0,0-.94-.4Zm-.72,0V7.16a2.22,2.22,0,0,0-.95.4l-1.95-2A5,5,0,0,1,24.16,4.4ZM20.75,6.11l2,2a2.22,2.22,0,0,0-.4.95H19.55A5,5,0,0,1,20.75,6.11Zm-1.2,3.61h2.76a2.17,2.17,0,0,0,.4.95l-2,2A4.89,4.89,0,0,1,19.55,9.72Zm4.61,4.62a5,5,0,0,1-2.91-1.2l2-2a2.21,2.21,0,0,0,.95.39Zm0-3.5h0a1.63,1.63,0,0,1-.43-.18h0a1.52,1.52,0,0,1-.5-.51h0A1.78,1.78,0,0,1,23,9.73h0a1.46,1.46,0,0,1,0-.72h0a1.63,1.63,0,0,1,.18-.43h0a1.49,1.49,0,0,1,.5-.5h0a1.63,1.63,0,0,1,.43-.18h0a1.46,1.46,0,0,1,.72,0h0a1.78,1.78,0,0,1,.43.18h0a1.52,1.52,0,0,1,.51.5h0A1.36,1.36,0,0,1,26,9h0a1.46,1.46,0,0,1,0,.72h0a1.46,1.46,0,0,1-.18.43h0a1.55,1.55,0,0,1-.51.51h0a1.46,1.46,0,0,1-.43.18h0a1.46,1.46,0,0,1-.72,0Zm.72,3.5V11.57a2.17,2.17,0,0,0,.94-.39l2,2A5,5,0,0,1,24.88,14.34Zm3.41-1.71-2-2a2.16,2.16,0,0,0,.39-.95h2.77a5,5,0,0,1-1.2,2.91Z" transform="translate(-0.76 3.81)"/><text class="cls-1" transform="translate(34.48 22.2)">4</text></svg>