<svg id="Layer_1" data-name="Layer 1" xmlns="http://www.w3.org/2000/svg" viewBox="0 0 49.91 36.03"><defs><style>.cls-1,.cls-3{fill:#1e1e1e;}.cls-2,.cls-3{isolation:isolate;}.cls-3{font-size:10.25px;font-family:SegoeUI-Bold, Segoe UI;font-weight:700;}</style></defs><g id="logo"><g id="_2546164" data-name=" 2546164"><path id="Path_1" data-name="Path 1" class="cls-1" d="M23.74.68c-1.52,0-2.91.11-4.28.19l-.72.05-.12.1a14,14,0,0,0-1.93,1.92,12.2,12.2,0,0,0-1.21,1.87l-.34.62h-.07c-.1,0-.13-.13-.13-.48s0-.42-.13-.45a2.84,2.84,0,0,0-1.23,0,1.24,1.24,0,0,0-.72.38,1.31,1.31,0,0,0,0,.68A1.12,1.12,0,0,0,13.91,6c.22,0,.23,0,.24-.06a.62.62,0,0,1,.5-.35l.11,0-.16.06a.75.75,0,0,0-.2.1.35.35,0,0,0-.12.22s0,0,.18,0a1.09,1.09,0,0,1,.44.06.8.8,0,0,1-.15.21,9.1,9.1,0,0,0-.68.83c-.13.19-.16.17-.06,0a2.66,2.66,0,0,1,.39-.54.18.18,0,0,0,0-.07s-.11,0-.44.26a11.59,11.59,0,0,0-2.39,2.14l-.4.43-.11.4a9.21,9.21,0,0,0-.36,2.14l0,.38.14.14a1.37,1.37,0,0,0,.48.31c.08,0,.08,0,0,0a1,1,0,0,1-.47-.18l-.1-.08,0,.2c0,.11.05.94.09,1.85s.09,1.71.09,1.76v.11l.16.05.29.11c.13.07.32.23.3.25a1.39,1.39,0,0,1-.28-.12,1.14,1.14,0,0,0-.36-.15H11l0,.18a7.36,7.36,0,0,0,0,1.15,7.53,7.53,0,0,0,.16,1.06,1.59,1.59,0,0,0,.69.8l.16.08h.79l2,0a10.79,10.79,0,0,0,1.27,0,.3.3,0,0,0,.15-.28v-.1h-.3a2.39,2.39,0,0,1-.75-.11l-.11,0h.19c.42,0,3.8,0,4.41,0a5.29,5.29,0,0,0,1-.08,11.54,11.54,0,0,1,1.18-.16c.41,0,7.62,0,8,0a11.74,11.74,0,0,1,1.19.16,5.18,5.18,0,0,0,1,.08c.61,0,4,0,4.42,0h.18l-.1,0a2.45,2.45,0,0,1-.76.11h-.3v.1a.3.3,0,0,0,.15.28,10.79,10.79,0,0,0,1.27,0l2,0h.79l.16-.08a1.54,1.54,0,0,0,.69-.8,7.55,7.55,0,0,0,.17-1.06,8.83,8.83,0,0,0,0-1.15l0-.18h-.1a1.38,1.38,0,0,0-.36.15,1.59,1.59,0,0,1-.27.12s.17-.18.29-.25l.29-.11.16-.05v-.11c0-.05,0-.85.09-1.76s.09-1.74.09-1.85l0-.2-.09.08a1,1,0,0,1-.47.18c-.14,0-.14,0-.06,0a1.28,1.28,0,0,0,.48-.31l.14-.14v-.38a9.23,9.23,0,0,0-.37-2.14l-.11-.4-.56-.6A11.61,11.61,0,0,0,37.86,7c-.46-.33-.92-.59-.73-.41a2.9,2.9,0,0,1,.39.53c.1.21.07.22-.06,0a7.6,7.6,0,0,0-.62-.76,1.86,1.86,0,0,1-.21-.28A1.09,1.09,0,0,1,37.07,6c.17,0,.18,0,.18,0a.36.36,0,0,0-.11-.22l-.21-.1-.16-.06.11,0a.6.6,0,0,1,.5.35s0,0,.24,0a1.6,1.6,0,0,0,.69-.13.79.79,0,0,0,.37-.35.63.63,0,0,0,0-.36c0-.27,0-.34-.19-.45a2.08,2.08,0,0,0-1.09-.3c-.46,0-.77,0-.82.15a1.5,1.5,0,0,0,0,.37c0,.34,0,.45-.13.48h-.07s-.11-.21-.25-.45a11.93,11.93,0,0,0-1.47-2.25A15,15,0,0,0,32.91,1L32.8.92l-.47,0C31.41.81,30.2.75,29,.7,28.09.68,24.68.66,23.74.68ZM19,1a.75.75,0,0,0-.29.27.36.36,0,0,0,0,.09,3.71,3.71,0,0,0,.47,0,75.07,75.07,0,0,1,10.17-.26c1.08.06,2.29.15,3.2.26a2.56,2.56,0,0,0,.39,0,.16.16,0,0,0,0-.09.86.86,0,0,0-.3-.27s0,0,.06,0a9.76,9.76,0,0,1,2.5,3.08c.26.42.76,1.28.75,1.3l-.55,0c-4.61-.29-10.5-.36-15.5-.18-1.28,0-2.94.13-3.79.19l-.34,0a17.83,17.83,0,0,1,1.05-1.79A8.49,8.49,0,0,1,18.89,1C19,1,19.07,1,19,1ZM16.87,8.45c.19.45.36.82.36.83l.41,0c.4,0,1.23.08,1.33.1s.07.05,0,.1-.12,0-.67,0l-.9-.08h-.25l-.35-.87a4.27,4.27,0,0,1-.34-.9S16.67,8,16.87,8.45ZM34.7,8.5c-.19.47-.35.87-.36.88l-.42,0-.85.07c-.54.06-.53.06-.55,0a.06.06,0,0,1,0-.07s.9-.09,1.38-.12l.39,0s.17-.38.37-.84.36-.82.37-.82S34.89,8,34.7,8.5ZM14.33,9a8,8,0,0,0,2.16.41l.46,0,.76,1.5a18.9,18.9,0,0,1,1.23,2.71l.36.95a6.81,6.81,0,0,0,1.61,2.61l.27.27.25,0a14.91,14.91,0,0,0,3,.26l.82,0-.47,0c-.26,0-.89,0-1.41,0a10.1,10.1,0,0,1-2-.14c-.4-.07-.36-.05-.75-.49a9.07,9.07,0,0,1-1.8-3.37c-.25-.7-.41-1.09-.59-1.48L18.11,12h-.22l-.78,0a20.32,20.32,0,0,1-5-.62.82.82,0,0,1-.45-.33c-.15-.23-.16-.53,0-1.45l0-.38.39-.12a3.32,3.32,0,0,1,1.42-.29h.31ZM38.51,8.8a6.12,6.12,0,0,1,.93.26l.39.13.05.37c.12.91.12,1.23,0,1.45a.84.84,0,0,1-.46.33,20.24,20.24,0,0,1-5,.62l-.78,0h-.21l-.14.28a13.19,13.19,0,0,0-.58,1.47A13.39,13.39,0,0,1,32,15.42a7.88,7.88,0,0,1-1.16,1.74c-.37.43-.33.4-.74.47a10.1,10.1,0,0,1-2,.14c-.51,0-1.14,0-1.4,0l-.47,0,.82,0a15.08,15.08,0,0,0,3-.26l.24,0,.27-.27a6.81,6.81,0,0,0,1.61-2.61l.37-1a19,19,0,0,1,1.24-2.71l.74-1.46.46,0A7.65,7.65,0,0,0,37.16,9l.56-.17a3,3,0,0,1,.79,0Zm-15.7.1c.65,0,2,.16,2.2.2.06,0,.09,0,.17.15a.44.44,0,0,0,.16.17c.09,0,.09,0,.13.58a5,5,0,0,1-.13,2.29.58.58,0,0,1-.31.36l-.13.07H23.56a11.05,11.05,0,0,1-2.73-.14A2.14,2.14,0,0,1,19.22,11a3,3,0,0,1,0-1.56c.11-.26.73-.45,1.67-.51.37,0,1.31,0,1.89,0Zm8.21,0a2.39,2.39,0,0,1,1.08.29c.16.1.21.18.25.43a2.64,2.64,0,0,1-.76,2.51,2,2,0,0,1-.51.31c-.57.24-1.09.28-3.1.26H26.63l-.13-.06c-.23-.12-.36-.36-.44-.84a9.12,9.12,0,0,1,0-1.81c0-.26,0-.49.05-.52a.16.16,0,0,1,.09-.07.32.32,0,0,0,.14-.14.64.64,0,0,1,.1-.13,24.15,24.15,0,0,1,2.94-.27A14.6,14.6,0,0,1,31,8.92Zm-14.63,6.6c.79,0,2.27.15,2.28.16l0,0s-.06,0-.8,0c-1.22-.1-1.35-.11-2.15-.14a14.74,14.74,0,0,0-2.1.06l-.29,0,.08.07a.69.69,0,0,1,.31.53.79.79,0,0,1-.75.83h-.31l.16,0a.74.74,0,0,0,.48-.22.68.68,0,0,0,0-1l0-.05a.83.83,0,0,0-.15-.11,2.49,2.49,0,0,0-.85.27,1.24,1.24,0,0,0-.23.17l-.11.11.06-.1a1.26,1.26,0,0,1,.74-.54,4.31,4.31,0,0,1,.86-.15c.34,0,2.05,0,2.8,0Zm21.51,0a4.57,4.57,0,0,1,.9.15,1.28,1.28,0,0,1,.75.53l.06.11-.11-.1a2.23,2.23,0,0,0-.24-.19,3.91,3.91,0,0,0-.75-.26c-.1,0-.11,0-.23.11a.67.67,0,0,0-.09,1l.07.07a.74.74,0,0,0,.48.22l.17,0h-.18a.78.78,0,0,1-.87-.68.79.79,0,0,1,0-.4.62.62,0,0,1,.24-.29l.08-.06-.28,0a14.88,14.88,0,0,0-2.11-.06c-.8,0-.92,0-2.14.13-.75.06-.78.06-.81,0l0-.05s2.32-.16,3.17-.2c.44,0,1.59,0,1.86,0Zm-16.6.42c2,.14,3.08.18,5.08.16.9,0,1.82,0,2.06,0,.79,0,1.57-.1,2-.14l.43,0a4.59,4.59,0,0,1-.35.61,1.5,1.5,0,0,1-.71.63,13.37,13.37,0,0,1-2.09.23c-.73,0-3.34,0-4.06,0A8.39,8.39,0,0,1,21.45,17a2.17,2.17,0,0,1-.8-.92,2.37,2.37,0,0,1-.14-.27h.06l.74.06Zm-5.62.44a.67.67,0,0,1-.2,0c-.06,0,0,0,.1,0s.15,0,.1,0Zm20.38,0a.67.67,0,0,1-.2,0c-.06,0,0,0,.1,0s.15,0,.1,0Zm-18.24.08,1.29,0,.06.08a.27.27,0,0,1,.07.08,1.87,1.87,0,0,1-.34,0L17,16.43l-.87-.06-.32,0h.38l1.67.06Zm17.62,0c-1.25.07-2.18.15-2.81.22a1.87,1.87,0,0,1-.34,0,.27.27,0,0,1,.07-.08l.06-.08,1.35,0,1.39-.06h.6ZM20.18,18c1.84.11,2.72.13,5.59.13,3.08,0,4.26,0,6.44-.18.24,0,.25,0,.25,0s0,.05-.3.06l-1,.06c-1.93.1-2.58.11-5.45.11s-3.41,0-5.46-.12C19.08,18,19.09,18,19.08,18s0-.05.24,0l.86.05Zm-7.55.4h0s0,0,0,0S12.64,18.37,12.63,18.38Zm26.33,0h-.05s0,0,0,0S39,18.37,39,18.38Zm-25,.11a31,31,0,0,0,3.85.22,4.75,4.75,0,0,0,1.4-.16c.1,0-.08.08-.2.13-.7.26-2.63.18-6-.25-.48-.06-.12,0,.95.06Zm24.67-.06c-1.7.22-3,.34-4,.39a4.2,4.2,0,0,1-2.15-.24s0,0,0,0a4.77,4.77,0,0,0,1.41.16,32.15,32.15,0,0,0,3.8-.22c1-.1,1.47-.12,1-.06Z" transform="translate(-0.01 -0.67)"/><path id="Path_2" data-name="Path 2" class="cls-1" d="M12.49,9.5a1.27,1.27,0,0,0,0,1.24,1.16,1.16,0,0,0,1.58.5l.09-.06.22-.16a1.73,1.73,0,0,0,.24-.38s-.05,0-.12.08a1.17,1.17,0,0,1-2-.92,1.27,1.27,0,0,1,0-.28.49.49,0,0,0,0-.12A.42.42,0,0,0,12.49,9.5Z" transform="translate(-0.01 -0.67)"/><path id="Path_3" data-name="Path 3" class="cls-1" d="M15.84,10.77a.69.69,0,0,0,.16.77.63.63,0,0,0,.9,0,.64.64,0,0,0,.1-.13l0-.07-.1.08a.63.63,0,0,1-.88-.1L16,11.15a.48.48,0,0,1-.06-.33v-.18A.83.83,0,0,0,15.84,10.77Z" transform="translate(-0.01 -0.67)"/><path id="Path_4" data-name="Path 4" class="cls-1" d="M39,9.44a1.83,1.83,0,0,1,0,.66,1.23,1.23,0,0,1-1.15.92,1.28,1.28,0,0,1-.79-.31c0-.06-.1-.09-.1-.08a1.59,1.59,0,0,0,.22.35,1.16,1.16,0,0,0,1.93-.28,1.24,1.24,0,0,0,0-1C39.08,9.55,38.94,9.33,39,9.44Z" transform="translate(-0.01 -0.67)"/><path id="Path_5" data-name="Path 5" class="cls-1" d="M35.63,10.82a.55.55,0,0,1-.07.33.6.6,0,0,1-.55.36.57.57,0,0,1-.4-.13l-.11-.08,0,.07a.63.63,0,0,0,.56.34.61.61,0,0,0,.57-.37.66.66,0,0,0,0-.58.75.75,0,0,0-.07-.12A1.09,1.09,0,0,0,35.63,10.82Z" transform="translate(-0.01 -0.67)"/><path id="Path_6" data-name="Path 6" class="cls-1" d="M19.44,9.62a2.83,2.83,0,0,0,0,.77,2.32,2.32,0,0,0,.25.77c.1.16.14.18.12,0s0-.41-.05-.78,0-.73,0-.78v-.1h-.3Z" transform="translate(-0.01 -0.67)"/><path id="Path_7" data-name="Path 7" class="cls-1" d="M19.87,9.63c0,.11.1,1.73.11,1.76a1.35,1.35,0,0,0,.33.19s-.1-2-.12-2a.47.47,0,0,0-.17,0C19.88,9.56,19.87,9.56,19.87,9.63Z" transform="translate(-0.01 -0.67)"/><path id="Path_8" data-name="Path 8" class="cls-1" d="M20.32,9.7c0,.27.11,1.94.13,2a1.15,1.15,0,0,0,.31.11s-.1-2.11-.12-2.15a.47.47,0,0,0-.17,0h-.15Z" transform="translate(-0.01 -0.67)"/><path id="Path_9" data-name="Path 9" class="cls-1" d="M20.77,9.67c0,.1.09,1.78.1,2l0,.18.08,0,.17,0h.08l0-1.11c0-.61-.06-1.13-.07-1.14s-.06,0-.17,0S20.77,9.61,20.77,9.67Z" transform="translate(-0.01 -0.67)"/><path id="Path_10" data-name="Path 10" class="cls-1" d="M21.21,9.65s0,.52.06,1.13.06,1.12.06,1.13a1,1,0,0,0,.34.06s-.1-2.27-.12-2.31A.65.65,0,0,0,21.21,9.65Z" transform="translate(-0.01 -0.67)"/><path id="Path_11" data-name="Path 11" class="cls-1" d="M25,9.65h-.09l0,.31c0,.6.09,2,.1,2s0,0,0,0a1.12,1.12,0,0,0,.18-.47,5.51,5.51,0,0,0,0-1.72C25.19,9.63,25.17,9.63,25,9.65Z" transform="translate(-0.01 -0.67)"/><path id="Path_12" data-name="Path 12" class="cls-1" d="M21.67,9.74s0,.57.06,1.16S21.79,12,21.8,12L22,12h.16v-.18c0-.11,0-.64-.06-1.19l-.05-1h-.36Z" transform="translate(-0.01 -0.67)"/><path id="Path_13" data-name="Path 13" class="cls-1" d="M22.14,9.88c0,.13,0,.67.06,1.2s.05,1,.05,1l.18,0,.17,0V12c0-.14-.12-2.29-.13-2.3l-.18,0h-.17Z" transform="translate(-0.01 -0.67)"/><path id="Path_14" data-name="Path 14" class="cls-1" d="M24.55,9.67c-.08,0-.12,0-.12,0s0,.53.06,1.14.06,1.13.06,1.15,0,0,.16,0a.47.47,0,0,0,.17,0s0-.53,0-1.17-.06-1.15-.06-1.16h-.23Z" transform="translate(-0.01 -0.67)"/><path id="Path_15" data-name="Path 15" class="cls-1" d="M22.6,9.8c0,.19.11,2.25.12,2.26a1.22,1.22,0,0,0,.33,0s-.1-2.32-.11-2.37-.07,0-.18,0H22.6Z" transform="translate(-0.01 -0.67)"/><path id="Path_16" data-name="Path 16" class="cls-1" d="M23.06,9.7s0,1.13.11,2.26v.13h.35V12c0-.05,0-.54-.05-1.08s-.06-1-.07-1.11V9.68h-.16A.32.32,0,0,0,23.06,9.7Z" transform="translate(-0.01 -0.67)"/><path id="Path_17" data-name="Path 17" class="cls-1" d="M23.51,9.74s0,.57.06,1.18.06,1.13.06,1.14a.55.55,0,0,0,.18,0c.12,0,.17,0,.17,0s-.12-2.32-.13-2.34-.06,0-.17,0S23.51,9.68,23.51,9.74Z" transform="translate(-0.01 -0.67)"/><path id="Path_18" data-name="Path 18" class="cls-1" d="M24,9.7s.11,2.34.12,2.36h.34v-.18c0-.1,0-.63-.06-1.18l-.05-1h-.17A.52.52,0,0,0,24,9.7Z" transform="translate(-0.01 -0.67)"/><path id="Path_19" data-name="Path 19" class="cls-1" d="M31.77,9.61s0,.4-.05.78,0,.76,0,.81,0,.13.13,0a2.89,2.89,0,0,0,.25-.77,3.94,3.94,0,0,0,.05-.77l0-.08h-.3Z" transform="translate(-0.01 -0.67)"/><path id="Path_20" data-name="Path 20" class="cls-1" d="M31.34,9.59s-.13,2-.12,2a1.11,1.11,0,0,0,.34-.18s.1-1.7.1-1.79,0,0-.15,0A.26.26,0,0,0,31.34,9.59Z" transform="translate(-0.01 -0.67)"/><path id="Path_21" data-name="Path 21" class="cls-1" d="M30.89,9.6s0,.05,0,.11,0,.53-.05,1.07,0,1,0,1a1,1,0,0,0,.31-.11s.13-1.7.14-2v-.1h-.33Z" transform="translate(-0.01 -0.67)"/><path id="Path_22" data-name="Path 22" class="cls-1" d="M30.43,9.64s-.12,2.23-.11,2.24a1.13,1.13,0,0,0,.31-.06,9.28,9.28,0,0,0,.08-1.05c0-.57.06-1.06.06-1.1s0-.06-.17-.06S30.44,9.62,30.43,9.64Z" transform="translate(-0.01 -0.67)"/><path id="Path_23" data-name="Path 23" class="cls-1" d="M26.34,9.67a5.21,5.21,0,0,0-.06,1.67c0,.33.17.62.25.62a.55.55,0,0,0,0-.18c0-.1,0-.34,0-.53,0-.61.08-1.57.07-1.58l-.15,0C26.38,9.63,26.35,9.63,26.34,9.67Z" transform="translate(-0.01 -0.67)"/><path id="Path_24" data-name="Path 24" class="cls-1" d="M30,9.66S29.85,12,29.86,12A.55.55,0,0,0,30,12c.12,0,.17,0,.17-.06s0-.52.05-1.12.06-1.09.06-1.11-.05,0-.16,0S30,9.64,30,9.66Z" transform="translate(-0.01 -0.67)"/><path id="Path_25" data-name="Path 25" class="cls-1" d="M26.74,9.86c0,.39-.11,2.14-.1,2.15l.17,0H27l0-.27.1-2.08-.17,0-.17,0Z" transform="translate(-0.01 -0.67)"/><path id="Path_26" data-name="Path 26" class="cls-1" d="M29.18,9.67h-.12v.17c0,.21-.11,2-.11,2.14v.09l.17,0,.17,0s0-.45,0-1,.06-1.08.07-1.19V9.65h-.23Z" transform="translate(-0.01 -0.67)"/><path id="Path_27" data-name="Path 27" class="cls-1" d="M29.51,9.68s0,.52-.05,1.1-.06,1.11-.07,1.16V12h.17a.63.63,0,0,0,.19,0s0-.51.06-1.11.06-1.12.07-1.16V9.66H29.7C29.58,9.66,29.52,9.66,29.51,9.68Z" transform="translate(-0.01 -0.67)"/><path id="Path_28" data-name="Path 28" class="cls-1" d="M27.21,9.71s0,.51-.06,1.1,0,1.1-.06,1.15V12l.17,0h.18s.05-.74.11-2a2.91,2.91,0,0,0,0-.39h-.17C27.27,9.68,27.22,9.69,27.21,9.71Z" transform="translate(-0.01 -0.67)"/><path id="Path_29" data-name="Path 29" class="cls-1" d="M27.68,9.7s-.13,2.18-.13,2.33,0,.05.18.05.17,0,.17,0S28,10.9,28,10l0-.29h-.17A.37.37,0,0,0,27.68,9.7Z" transform="translate(-0.01 -0.67)"/><path id="Path_30" data-name="Path 30" class="cls-1" d="M28.13,9.78c0,.05,0,.55-.06,1.11S28,11.94,28,12v.1h.35l0-.57c0-.31,0-.84.06-1.18a5.94,5.94,0,0,0,0-.64.32.32,0,0,0-.17,0h-.16Z" transform="translate(-0.01 -0.67)"/><path id="Path_31" data-name="Path 31" class="cls-1" d="M28.58,9.75s0,.58,0,1.2-.05,1.12,0,1.13h.33V11.9c0-.22.11-2,.11-2.12v-.1h-.36Z" transform="translate(-0.01 -0.67)"/></g><g id="CS_Diecast" data-name="CS Diecast" class="cls-2"><text class="cls-3" transform="translate(0 31.62)">CS Diecast</text></g></g></svg>